# Blender v2.82 (sub 7) OBJ File: 'circle.blend'
# www.blender.org
mtllib circle.mtl
o Torus
v -0.000000 -0.000000 -0.000000
v 0.293892 0.095491 -0.000000
v 0.475528 0.345491 -0.000000
v 0.475528 0.654508 -0.000000
v 0.293892 0.904508 -0.000000
v -0.000000 1.000000 -0.000000
v -0.293893 0.904508 -0.000000
v -0.475529 0.654508 -0.000000
v -0.475529 0.345491 -0.000000
v -0.293893 0.095491 -0.000000
v -0.000000 0.111068 -0.736888
v 0.293892 0.202317 -0.708741
v 0.475528 0.441210 -0.635053
v 0.475528 0.736498 -0.543968
v 0.293892 0.975391 -0.470279
v -0.000000 1.066640 -0.442133
v -0.293893 0.975391 -0.470279
v -0.475529 0.736498 -0.543968
v -0.475529 0.441210 -0.635053
v -0.293893 0.202317 -0.708741
v -0.000000 0.434403 -1.408300
v 0.293892 0.513302 -1.354508
v 0.475528 0.719861 -1.213678
v 0.475528 0.975183 -1.039602
v 0.293892 1.181743 -0.898772
v -0.000000 1.260641 -0.844980
v -0.293893 1.181743 -0.898772
v -0.475529 0.975183 -1.039602
v -0.475529 0.719861 -1.213678
v -0.293893 0.513301 -1.354508
v -0.000000 0.941275 -1.954579
v 0.293892 1.000813 -1.879921
v 0.475528 1.156686 -1.684463
v 0.475528 1.349355 -1.442863
v 0.293892 1.505227 -1.247406
v -0.000000 1.564765 -1.172747
v -0.293893 1.505227 -1.247406
v -0.475529 1.349355 -1.442863
v -0.475529 1.156686 -1.684463
v -0.293893 1.000813 -1.879921
v -0.000000 1.586647 -2.327184
v 0.293892 1.621534 -2.238294
v 0.475528 1.712869 -2.005575
v 0.475528 1.825766 -1.717919
v 0.293892 1.917101 -1.485201
v -0.000000 1.951988 -1.396310
v -0.293893 1.917101 -1.485201
v -0.475529 1.825766 -1.717919
v -0.475529 1.712869 -2.005575
v -0.293893 1.621534 -2.238294
v -0.000000 2.313175 -2.493009
v 0.293892 2.320311 -2.397785
v 0.475528 2.338994 -2.148484
v 0.475528 2.362086 -1.840331
v 0.293892 2.380769 -1.591030
v -0.000000 2.387905 -1.495806
v -0.293893 2.380769 -1.591030
v -0.475529 2.362086 -1.840331
v -0.475529 2.338994 -2.148484
v -0.293893 2.320311 -2.397785
v -0.000000 3.056302 -2.437320
v 0.293892 3.035053 -2.344222
v 0.475528 2.979423 -2.100490
v 0.475528 2.910660 -1.799221
v 0.293892 2.855030 -1.555489
v -0.000000 2.833781 -1.462392
v -0.293893 2.855030 -1.555489
v -0.475529 2.910660 -1.799221
v -0.475529 2.979423 -2.100490
v -0.293893 3.035053 -2.344222
v -0.000000 3.749999 -2.165064
v 0.293892 3.702254 -2.082366
v 0.475528 3.577254 -1.865859
v 0.475528 3.422745 -1.598243
v 0.293892 3.297745 -1.381736
v -0.000000 3.250000 -1.299038
v -0.293893 3.297745 -1.381736
v -0.475529 3.422745 -1.598243
v -0.475529 3.577254 -1.865859
v -0.293893 3.702254 -2.082366
v -0.000000 4.332630 -1.700432
v 0.293892 4.262630 -1.635481
v 0.475528 4.079366 -1.465438
v 0.475528 3.852841 -1.255253
v 0.293892 3.669578 -1.085210
v -0.000000 3.599577 -1.020259
v -0.293893 3.669578 -1.085210
v -0.475529 3.852841 -1.255253
v -0.475529 4.079367 -1.465438
v -0.293893 4.262630 -1.635481
v -0.000000 4.752422 -1.084709
v 0.293892 4.666387 -1.043277
v 0.475528 4.441145 -0.934806
v 0.475528 4.162730 -0.800729
v 0.293892 3.937488 -0.692258
v -0.000000 3.851453 -0.650826
v -0.293893 3.937488 -0.692258
v -0.475529 4.162730 -0.800729
v -0.475528 4.441145 -0.934806
v -0.293893 4.666387 -1.043277
v -0.000000 4.972077 -0.372605
v 0.293892 4.877652 -0.358373
v 0.475528 4.630445 -0.321112
v 0.475528 4.324879 -0.275056
v 0.293892 4.077671 -0.237795
v -0.000000 3.983246 -0.223563
v -0.293893 4.077671 -0.237795
v -0.475528 4.324879 -0.275056
v -0.475528 4.630445 -0.321112
v -0.293893 4.877652 -0.358373
v -0.000000 4.972077 0.372605
v 0.293892 4.877652 0.358373
v 0.475528 4.630445 0.321112
v 0.475528 4.324879 0.275056
v 0.293892 4.077671 0.237795
v -0.000000 3.983246 0.223563
v -0.293893 4.077671 0.237795
v -0.475528 4.324879 0.275056
v -0.475528 4.630445 0.321112
v -0.293893 4.877652 0.358373
v -0.000000 4.752422 1.084708
v 0.293892 4.666388 1.043276
v 0.475528 4.441145 0.934805
v 0.475528 4.162730 0.800728
v 0.293892 3.937488 0.692257
v -0.000000 3.851453 0.650825
v -0.293893 3.937488 0.692257
v -0.475529 4.162730 0.800728
v -0.475529 4.441145 0.934805
v -0.293893 4.666388 1.043276
v -0.000000 4.332630 1.700432
v 0.293892 4.262630 1.635481
v 0.475528 4.079366 1.465438
v 0.475528 3.852841 1.255253
v 0.293892 3.669578 1.085210
v -0.000000 3.599577 1.020259
v -0.293893 3.669578 1.085210
v -0.475529 3.852841 1.255253
v -0.475529 4.079367 1.465438
v -0.293893 4.262630 1.635481
v -0.000000 3.749999 2.165064
v 0.293892 3.702254 2.082366
v 0.475528 3.577254 1.865859
v 0.475528 3.422745 1.598243
v 0.293892 3.297745 1.381736
v -0.000000 3.250000 1.299038
v -0.293893 3.297745 1.381736
v -0.475529 3.422745 1.598243
v -0.475529 3.577254 1.865859
v -0.293893 3.702254 2.082366
v -0.000000 3.056302 2.437320
v 0.293892 3.035053 2.344222
v 0.475528 2.979423 2.100490
v 0.475528 2.910660 1.799221
v 0.293892 2.855030 1.555489
v -0.000000 2.833781 1.462392
v -0.293893 2.855030 1.555489
v -0.475529 2.910660 1.799221
v -0.475529 2.979423 2.100490
v -0.293893 3.035053 2.344222
v -0.000000 2.313175 2.493009
v 0.293892 2.320311 2.397785
v 0.475528 2.338994 2.148484
v 0.475528 2.362086 1.840331
v 0.293892 2.380769 1.591030
v -0.000000 2.387905 1.495806
v -0.293893 2.380769 1.591030
v -0.475529 2.362086 1.840331
v -0.475529 2.338994 2.148484
v -0.293893 2.320311 2.397785
v -0.000000 1.586648 2.327184
v 0.293892 1.621535 2.238294
v 0.475528 1.712870 2.005575
v 0.475528 1.825767 1.717920
v 0.293892 1.917102 1.485201
v -0.000000 1.951989 1.396311
v -0.293893 1.917102 1.485201
v -0.475529 1.825767 1.717920
v -0.475529 1.712870 2.005575
v -0.293893 1.621535 2.238294
v -0.000000 0.941276 1.954579
v 0.293892 1.000814 1.879921
v 0.475528 1.156687 1.684463
v 0.475528 1.349355 1.442864
v 0.293892 1.505228 1.247406
v -0.000000 1.564766 1.172748
v -0.293893 1.505228 1.247406
v -0.475529 1.349355 1.442864
v -0.475529 1.156687 1.684463
v -0.293893 1.000814 1.879921
v -0.000000 0.434403 1.408300
v 0.293892 0.513301 1.354507
v 0.475528 0.719861 1.213678
v 0.475528 0.975183 1.039602
v 0.293892 1.181743 0.898772
v -0.000000 1.260641 0.844980
v -0.293893 1.181743 0.898772
v -0.475529 0.975183 1.039602
v -0.475529 0.719861 1.213678
v -0.293893 0.513301 1.354507
v -0.000000 0.111068 0.736888
v 0.293892 0.202317 0.708741
v 0.475528 0.441210 0.635053
v 0.475528 0.736498 0.543968
v 0.293892 0.975391 0.470279
v -0.000000 1.066640 0.442133
v -0.293893 0.975391 0.470279
v -0.475529 0.736498 0.543968
v -0.475529 0.441210 0.635053
v -0.293893 0.202317 0.708741
vt 0.523810 0.600000
vt 0.571429 0.600000
vt 0.571429 0.700000
vt 0.523810 0.700000
vt 0.571429 0.800000
vt 0.523810 0.800000
vt 0.571429 0.900000
vt 0.523810 0.900000
vt 0.571429 1.000000
vt 0.523810 1.000000
vt 0.523810 -0.000000
vt 0.571429 -0.000000
vt 0.571429 0.100000
vt 0.523810 0.100000
vt 0.571429 0.200000
vt 0.523810 0.200000
vt 0.571429 0.300000
vt 0.523810 0.300000
vt 0.571429 0.400000
vt 0.523810 0.400000
vt 0.571429 0.500000
vt 0.523810 0.500000
vt 0.619048 0.600000
vt 0.619048 0.700000
vt 0.619048 0.800000
vt 0.619048 0.900000
vt 0.619048 1.000000
vt 0.619048 -0.000000
vt 0.619048 0.100000
vt 0.619048 0.200000
vt 0.619048 0.300000
vt 0.619048 0.400000
vt 0.619048 0.500000
vt 0.666667 0.600000
vt 0.666667 0.700000
vt 0.666667 0.800000
vt 0.666667 0.900000
vt 0.666667 1.000000
vt 0.666667 -0.000000
vt 0.666667 0.100000
vt 0.666667 0.200000
vt 0.666667 0.300000
vt 0.666667 0.400000
vt 0.666667 0.500000
vt 0.714286 0.600000
vt 0.714286 0.700000
vt 0.714286 0.800000
vt 0.714286 0.900000
vt 0.714286 1.000000
vt 0.714286 -0.000000
vt 0.714286 0.100000
vt 0.714286 0.200000
vt 0.714286 0.300000
vt 0.714286 0.400000
vt 0.714286 0.500000
vt 0.761905 0.600000
vt 0.761905 0.700000
vt 0.761905 0.800000
vt 0.761905 0.900000
vt 0.761905 1.000000
vt 0.761905 -0.000000
vt 0.761905 0.100000
vt 0.761905 0.200000
vt 0.761905 0.300000
vt 0.761905 0.400000
vt 0.761905 0.500000
vt 0.809524 0.600000
vt 0.809524 0.700000
vt 0.809524 0.800000
vt 0.809524 0.900000
vt 0.809524 1.000000
vt 0.809524 -0.000000
vt 0.809524 0.100000
vt 0.809524 0.200000
vt 0.809524 0.300000
vt 0.809524 0.400000
vt 0.809524 0.500000
vt 0.857143 0.600000
vt 0.857143 0.700000
vt 0.857143 0.800000
vt 0.857143 0.900000
vt 0.857143 1.000000
vt 0.857143 -0.000000
vt 0.857143 0.100000
vt 0.857143 0.200000
vt 0.857143 0.300000
vt 0.857143 0.400000
vt 0.857143 0.500000
vt 0.904762 0.600000
vt 0.904762 0.700000
vt 0.904762 0.800000
vt 0.904762 0.900000
vt 0.904762 1.000000
vt 0.904762 -0.000000
vt 0.904762 0.100000
vt 0.904762 0.200000
vt 0.904762 0.300000
vt 0.904762 0.400000
vt 0.904762 0.500000
vt 0.952381 0.600000
vt 0.952381 0.700000
vt 0.952381 0.800000
vt 0.952381 0.900000
vt 0.952381 1.000000
vt 0.952381 -0.000000
vt 0.952381 0.100000
vt 0.952381 0.200000
vt 0.952381 0.300000
vt 0.952381 0.400000
vt 0.952381 0.500000
vt 1.000000 0.600000
vt 1.000000 0.700000
vt 1.000000 0.800000
vt 1.000000 0.900000
vt 1.000000 1.000000
vt 1.000000 -0.000000
vt 1.000000 0.100000
vt 1.000000 0.200000
vt 1.000000 0.300000
vt 1.000000 0.400000
vt 1.000000 0.500000
vt 0.000000 0.600000
vt 0.047619 0.600000
vt 0.047619 0.700000
vt 0.000000 0.700000
vt 0.047619 0.800000
vt 0.000000 0.800000
vt 0.047619 0.900000
vt 0.000000 0.900000
vt 0.047619 1.000000
vt 0.000000 1.000000
vt 0.000000 -0.000000
vt 0.047619 -0.000000
vt 0.047619 0.100000
vt 0.000000 0.100000
vt 0.047619 0.200000
vt 0.000000 0.200000
vt 0.047619 0.300000
vt 0.000000 0.300000
vt 0.047619 0.400000
vt 0.000000 0.400000
vt 0.047619 0.500000
vt 0.000000 0.500000
vt 0.095238 0.600000
vt 0.095238 0.700000
vt 0.095238 0.800000
vt 0.095238 0.900000
vt 0.095238 1.000000
vt 0.095238 -0.000000
vt 0.095238 0.100000
vt 0.095238 0.200000
vt 0.095238 0.300000
vt 0.095238 0.400000
vt 0.095238 0.500000
vt 0.142857 0.600000
vt 0.142857 0.700000
vt 0.142857 0.800000
vt 0.142857 0.900000
vt 0.142857 1.000000
vt 0.142857 -0.000000
vt 0.142857 0.100000
vt 0.142857 0.200000
vt 0.142857 0.300000
vt 0.142857 0.400000
vt 0.142857 0.500000
vt 0.190476 0.600000
vt 0.190476 0.700000
vt 0.190476 0.800000
vt 0.190476 0.900000
vt 0.190476 1.000000
vt 0.190476 -0.000000
vt 0.190476 0.100000
vt 0.190476 0.200000
vt 0.190476 0.300000
vt 0.190476 0.400000
vt 0.190476 0.500000
vt 0.238095 0.600000
vt 0.238095 0.700000
vt 0.238095 0.800000
vt 0.238095 0.900000
vt 0.238095 1.000000
vt 0.238095 -0.000000
vt 0.238095 0.100000
vt 0.238095 0.200000
vt 0.238095 0.300000
vt 0.238095 0.400000
vt 0.238095 0.500000
vt 0.285714 0.600000
vt 0.285714 0.700000
vt 0.285714 0.800000
vt 0.285714 0.900000
vt 0.285714 1.000000
vt 0.285714 -0.000000
vt 0.285714 0.100000
vt 0.285714 0.200000
vt 0.285714 0.300000
vt 0.285714 0.400000
vt 0.285714 0.500000
vt 0.333333 0.600000
vt 0.333333 0.700000
vt 0.333333 0.800000
vt 0.333333 0.900000
vt 0.333333 1.000000
vt 0.333333 -0.000000
vt 0.333333 0.100000
vt 0.333333 0.200000
vt 0.333333 0.300000
vt 0.333333 0.400000
vt 0.333333 0.500000
vt 0.380952 0.600000
vt 0.380952 0.700000
vt 0.380952 0.800000
vt 0.380952 0.900000
vt 0.380952 1.000000
vt 0.380952 -0.000000
vt 0.380952 0.100000
vt 0.380952 0.200000
vt 0.380952 0.300000
vt 0.380952 0.400000
vt 0.380952 0.500000
vt 0.428571 0.600000
vt 0.428571 0.700000
vt 0.428571 0.800000
vt 0.428571 0.900000
vt 0.428571 1.000000
vt 0.428571 -0.000000
vt 0.428571 0.100000
vt 0.428571 0.200000
vt 0.428571 0.300000
vt 0.428571 0.400000
vt 0.428571 0.500000
vt 0.476190 0.600000
vt 0.476190 0.700000
vt 0.476190 0.800000
vt 0.476190 0.900000
vt 0.476190 1.000000
vt 0.476190 -0.000000
vt 0.476190 0.100000
vt 0.476190 0.200000
vt 0.476190 0.300000
vt 0.476190 0.400000
vt 0.476190 0.500000
vn 0.3059 -0.9414 -0.1419
vn 0.8059 -0.5855 -0.0882
vn 1.0000 -0.0000 -0.0000
vn 0.8059 0.5855 0.0882
vn 0.3059 0.9414 0.1419
vn -0.3059 0.9414 0.1419
vn -0.8059 0.5855 0.0882
vn -1.0000 0.0000 0.0000
vn -0.8059 -0.5855 -0.0882
vn -0.3059 -0.9414 -0.1419
vn 0.3059 -0.8578 -0.4131
vn 0.8059 -0.5335 -0.2569
vn 0.8059 0.5335 0.2569
vn 0.3059 0.8578 0.4131
vn -0.3059 0.8578 0.4131
vn -0.8059 0.5335 0.2569
vn -0.8059 -0.5335 -0.2569
vn -0.3059 -0.8578 -0.4131
vn 0.3059 -0.6979 -0.6476
vn 0.8059 -0.4340 -0.4027
vn 0.8059 0.4340 0.4027
vn 0.3059 0.6979 0.6476
vn -0.3059 0.6979 0.6476
vn -0.8059 0.4340 0.4027
vn -0.8059 -0.4340 -0.4027
vn -0.3059 -0.6979 -0.6476
vn 0.3059 -0.4760 -0.8245
vn 0.8059 -0.2961 -0.5128
vn 0.8059 0.2961 0.5128
vn 0.3059 0.4760 0.8245
vn -0.3059 0.4760 0.8245
vn -0.8059 0.2961 0.5128
vn -0.8059 -0.2961 -0.5128
vn -0.3059 -0.4760 -0.8245
vn 0.3059 -0.2119 -0.9282
vn 0.8059 -0.1318 -0.5773
vn 0.8059 0.1318 0.5773
vn 0.3059 0.2119 0.9282
vn -0.3059 0.2119 0.9282
vn -0.8059 0.1318 0.5773
vn -0.8059 -0.1318 -0.5773
vn -0.3059 -0.2119 -0.9282
vn 0.3059 0.0711 -0.9494
vn 0.8059 0.0442 -0.5904
vn 0.8059 -0.0442 0.5904
vn 0.3059 -0.0711 0.9494
vn -0.3059 -0.0711 0.9494
vn -0.8059 -0.0442 0.5904
vn -0.8059 0.0442 -0.5905
vn -0.3059 0.0711 -0.9494
vn 0.3059 0.3478 -0.8863
vn 0.8059 0.2163 -0.5512
vn 0.8059 -0.2163 0.5512
vn 0.3059 -0.3478 0.8863
vn -0.3059 -0.3478 0.8863
vn -0.8059 -0.2163 0.5512
vn -0.8059 0.2163 -0.5512
vn -0.3059 0.3478 -0.8863
vn 0.3059 0.5936 -0.7444
vn 0.8059 0.3692 -0.4629
vn 0.8059 -0.3692 0.4629
vn 0.3059 -0.5936 0.7444
vn -0.3059 -0.5936 0.7444
vn -0.8059 -0.3692 0.4629
vn -0.8059 0.3692 -0.4629
vn -0.3059 0.5936 -0.7444
vn 0.3059 0.7866 -0.5363
vn 0.8059 0.4892 -0.3335
vn 0.8059 -0.4892 0.3335
vn 0.3059 -0.7866 0.5363
vn -0.3059 -0.7866 0.5363
vn -0.8059 -0.4892 0.3335
vn -0.8059 0.4892 -0.3335
vn -0.3059 0.7866 -0.5363
vn 0.3059 0.9098 -0.2806
vn 0.8059 0.5658 -0.1745
vn 0.8059 -0.5658 0.1745
vn 0.3059 -0.9098 0.2806
vn -0.3059 -0.9098 0.2806
vn -0.8059 -0.5658 0.1745
vn -0.8059 0.5658 -0.1745
vn -0.3059 0.9098 -0.2806
vn 0.3059 0.9521 0.0000
vn 0.8059 0.5921 0.0000
vn 0.8059 -0.5921 0.0000
vn 0.3059 -0.9521 0.0000
vn -0.3059 -0.9521 0.0000
vn -0.8059 -0.5921 0.0000
vn -0.8059 0.5921 0.0000
vn -0.3059 0.9521 0.0000
vn 0.3059 0.9098 0.2806
vn 0.8059 0.5658 0.1745
vn 0.8059 -0.5658 -0.1745
vn 0.3059 -0.9098 -0.2806
vn -0.3059 -0.9098 -0.2806
vn -0.8059 -0.5658 -0.1745
vn -0.8059 0.5658 0.1745
vn -0.3059 0.9098 0.2806
vn 0.3059 0.7866 0.5363
vn 0.8059 0.4892 0.3335
vn 0.8059 -0.4892 -0.3335
vn 0.3059 -0.7866 -0.5363
vn -0.3059 -0.7866 -0.5363
vn -0.8059 -0.4892 -0.3335
vn -0.8059 0.4892 0.3335
vn -0.3059 0.7866 0.5363
vn 0.3059 0.5936 0.7444
vn 0.8059 0.3692 0.4629
vn 0.8059 -0.3692 -0.4629
vn 0.3059 -0.5936 -0.7444
vn -0.3059 -0.5936 -0.7444
vn -0.8059 -0.3692 -0.4629
vn -0.8059 0.3692 0.4629
vn -0.3059 0.5936 0.7444
vn 0.3059 0.3478 0.8863
vn 0.8059 0.2163 0.5512
vn 0.8059 -0.2163 -0.5512
vn 0.3059 -0.3478 -0.8863
vn -0.3059 -0.3478 -0.8863
vn -0.8059 -0.2163 -0.5512
vn -0.8059 0.2163 0.5512
vn -0.3059 0.3478 0.8863
vn 0.3059 0.0711 0.9494
vn 0.8059 0.0442 0.5904
vn 0.8059 -0.0442 -0.5904
vn 0.3059 -0.0711 -0.9494
vn -0.3059 -0.0711 -0.9494
vn -0.8059 -0.0442 -0.5904
vn -0.8059 0.0442 0.5905
vn -0.3059 0.0711 0.9494
vn 0.3059 -0.2119 0.9282
vn 0.8059 -0.1318 0.5773
vn 0.8059 0.1318 -0.5773
vn 0.3059 0.2119 -0.9282
vn -0.3059 0.2119 -0.9282
vn -0.8059 0.1318 -0.5773
vn -0.8059 -0.1318 0.5773
vn -0.3059 -0.2119 0.9282
vn 0.3059 -0.4760 0.8245
vn 0.8059 -0.2961 0.5128
vn 0.8059 0.2961 -0.5128
vn 0.3059 0.4760 -0.8245
vn -0.3059 0.4760 -0.8245
vn -0.8059 0.2961 -0.5128
vn -0.8059 -0.2961 0.5128
vn -0.3059 -0.4760 0.8245
vn 0.3059 -0.6979 0.6476
vn 0.8059 -0.4340 0.4027
vn 0.8059 0.4340 -0.4027
vn 0.3059 0.6979 -0.6476
vn -0.3059 0.6979 -0.6476
vn -0.8059 0.4340 -0.4027
vn -0.8059 -0.4340 0.4027
vn -0.3059 -0.6979 0.6476
vn 0.3059 -0.8578 0.4131
vn 0.8059 -0.5335 0.2569
vn 0.8059 0.5335 -0.2569
vn 0.3059 0.8578 -0.4131
vn -0.3059 0.8578 -0.4131
vn -0.8059 0.5335 -0.2569
vn -0.8059 -0.5335 0.2569
vn -0.3059 -0.8578 0.4131
vn 0.3059 -0.9414 0.1419
vn 0.8059 -0.5855 0.0882
vn 0.8059 0.5855 -0.0882
vn 0.3059 0.9414 -0.1419
vn -0.3059 0.9414 -0.1419
vn -0.8059 0.5855 -0.0882
vn -0.8059 -0.5855 0.0882
vn -0.3059 -0.9414 0.1419
usemtl None
s off
f 1/1/1 11/2/1 12/3/1 2/4/1
f 2/4/2 12/3/2 13/5/2 3/6/2
f 3/6/3 13/5/3 14/7/3 4/8/3
f 4/8/4 14/7/4 15/9/4 5/10/4
f 5/11/5 15/12/5 16/13/5 6/14/5
f 6/14/6 16/13/6 17/15/6 7/16/6
f 7/16/7 17/15/7 18/17/7 8/18/7
f 8/18/8 18/17/8 19/19/8 9/20/8
f 9/20/9 19/19/9 20/21/9 10/22/9
f 10/22/10 20/21/10 11/2/10 1/1/10
f 11/2/11 21/23/11 22/24/11 12/3/11
f 12/3/12 22/24/12 23/25/12 13/5/12
f 13/5/3 23/25/3 24/26/3 14/7/3
f 14/7/13 24/26/13 25/27/13 15/9/13
f 15/12/14 25/28/14 26/29/14 16/13/14
f 16/13/15 26/29/15 27/30/15 17/15/15
f 17/15/16 27/30/16 28/31/16 18/17/16
f 18/17/8 28/31/8 29/32/8 19/19/8
f 19/19/17 29/32/17 30/33/17 20/21/17
f 20/21/18 30/33/18 21/23/18 11/2/18
f 21/23/19 31/34/19 32/35/19 22/24/19
f 22/24/20 32/35/20 33/36/20 23/25/20
f 23/25/3 33/36/3 34/37/3 24/26/3
f 24/26/21 34/37/21 35/38/21 25/27/21
f 25/28/22 35/39/22 36/40/22 26/29/22
f 26/29/23 36/40/23 37/41/23 27/30/23
f 27/30/24 37/41/24 38/42/24 28/31/24
f 28/31/8 38/42/8 39/43/8 29/32/8
f 29/32/25 39/43/25 40/44/25 30/33/25
f 30/33/26 40/44/26 31/34/26 21/23/26
f 31/34/27 41/45/27 42/46/27 32/35/27
f 32/35/28 42/46/28 43/47/28 33/36/28
f 33/36/3 43/47/3 44/48/3 34/37/3
f 34/37/29 44/48/29 45/49/29 35/38/29
f 35/39/30 45/50/30 46/51/30 36/40/30
f 36/40/31 46/51/31 47/52/31 37/41/31
f 37/41/32 47/52/32 48/53/32 38/42/32
f 38/42/8 48/53/8 49/54/8 39/43/8
f 39/43/33 49/54/33 50/55/33 40/44/33
f 40/44/34 50/55/34 41/45/34 31/34/34
f 41/45/35 51/56/35 52/57/35 42/46/35
f 42/46/36 52/57/36 53/58/36 43/47/36
f 43/47/3 53/58/3 54/59/3 44/48/3
f 44/48/37 54/59/37 55/60/37 45/49/37
f 45/50/38 55/61/38 56/62/38 46/51/38
f 46/51/39 56/62/39 57/63/39 47/52/39
f 47/52/40 57/63/40 58/64/40 48/53/40
f 48/53/8 58/64/8 59/65/8 49/54/8
f 49/54/41 59/65/41 60/66/41 50/55/41
f 50/55/42 60/66/42 51/56/42 41/45/42
f 51/56/43 61/67/43 62/68/43 52/57/43
f 52/57/44 62/68/44 63/69/44 53/58/44
f 53/58/3 63/69/3 64/70/3 54/59/3
f 54/59/45 64/70/45 65/71/45 55/60/45
f 55/61/46 65/72/46 66/73/46 56/62/46
f 56/62/47 66/73/47 67/74/47 57/63/47
f 57/63/48 67/74/48 68/75/48 58/64/48
f 58/64/8 68/75/8 69/76/8 59/65/8
f 59/65/49 69/76/49 70/77/49 60/66/49
f 60/66/50 70/77/50 61/67/50 51/56/50
f 61/67/51 71/78/51 72/79/51 62/68/51
f 62/68/52 72/79/52 73/80/52 63/69/52
f 63/69/3 73/80/3 74/81/3 64/70/3
f 64/70/53 74/81/53 75/82/53 65/71/53
f 65/72/54 75/83/54 76/84/54 66/73/54
f 66/73/55 76/84/55 77/85/55 67/74/55
f 67/74/56 77/85/56 78/86/56 68/75/56
f 68/75/8 78/86/8 79/87/8 69/76/8
f 69/76/57 79/87/57 80/88/57 70/77/57
f 70/77/58 80/88/58 71/78/58 61/67/58
f 71/78/59 81/89/59 82/90/59 72/79/59
f 72/79/60 82/90/60 83/91/60 73/80/60
f 73/80/3 83/91/3 84/92/3 74/81/3
f 74/81/61 84/92/61 85/93/61 75/82/61
f 75/83/62 85/94/62 86/95/62 76/84/62
f 76/84/63 86/95/63 87/96/63 77/85/63
f 77/85/64 87/96/64 88/97/64 78/86/64
f 78/86/8 88/97/8 89/98/8 79/87/8
f 79/87/65 89/98/65 90/99/65 80/88/65
f 80/88/66 90/99/66 81/89/66 71/78/66
f 81/89/67 91/100/67 92/101/67 82/90/67
f 82/90/68 92/101/68 93/102/68 83/91/68
f 83/91/3 93/102/3 94/103/3 84/92/3
f 84/92/69 94/103/69 95/104/69 85/93/69
f 85/94/70 95/105/70 96/106/70 86/95/70
f 86/95/71 96/106/71 97/107/71 87/96/71
f 87/96/72 97/107/72 98/108/72 88/97/72
f 88/97/8 98/108/8 99/109/8 89/98/8
f 89/98/73 99/109/73 100/110/73 90/99/73
f 90/99/74 100/110/74 91/100/74 81/89/74
f 91/100/75 101/111/75 102/112/75 92/101/75
f 92/101/76 102/112/76 103/113/76 93/102/76
f 93/102/3 103/113/3 104/114/3 94/103/3
f 94/103/77 104/114/77 105/115/77 95/104/77
f 95/105/78 105/116/78 106/117/78 96/106/78
f 96/106/79 106/117/79 107/118/79 97/107/79
f 97/107/80 107/118/80 108/119/80 98/108/80
f 98/108/8 108/119/8 109/120/8 99/109/8
f 99/109/81 109/120/81 110/121/81 100/110/81
f 100/110/82 110/121/82 101/111/82 91/100/82
f 101/122/83 111/123/83 112/124/83 102/125/83
f 102/125/84 112/124/84 113/126/84 103/127/84
f 103/127/3 113/126/3 114/128/3 104/129/3
f 104/129/85 114/128/85 115/130/85 105/131/85
f 105/132/86 115/133/86 116/134/86 106/135/86
f 106/135/87 116/134/87 117/136/87 107/137/87
f 107/137/88 117/136/88 118/138/88 108/139/88
f 108/139/8 118/138/8 119/140/8 109/141/8
f 109/141/89 119/140/89 120/142/89 110/143/89
f 110/143/90 120/142/90 111/123/90 101/122/90
f 111/123/91 121/144/91 122/145/91 112/124/91
f 112/124/92 122/145/92 123/146/92 113/126/92
f 113/126/3 123/146/3 124/147/3 114/128/3
f 114/128/93 124/147/93 125/148/93 115/130/93
f 115/133/94 125/149/94 126/150/94 116/134/94
f 116/134/95 126/150/95 127/151/95 117/136/95
f 117/136/96 127/151/96 128/152/96 118/138/96
f 118/138/8 128/152/8 129/153/8 119/140/8
f 119/140/97 129/153/97 130/154/97 120/142/97
f 120/142/98 130/154/98 121/144/98 111/123/98
f 121/144/99 131/155/99 132/156/99 122/145/99
f 122/145/100 132/156/100 133/157/100 123/146/100
f 123/146/3 133/157/3 134/158/3 124/147/3
f 124/147/101 134/158/101 135/159/101 125/148/101
f 125/149/102 135/160/102 136/161/102 126/150/102
f 126/150/103 136/161/103 137/162/103 127/151/103
f 127/151/104 137/162/104 138/163/104 128/152/104
f 128/152/8 138/163/8 139/164/8 129/153/8
f 129/153/105 139/164/105 140/165/105 130/154/105
f 130/154/106 140/165/106 131/155/106 121/144/106
f 131/155/107 141/166/107 142/167/107 132/156/107
f 132/156/108 142/167/108 143/168/108 133/157/108
f 133/157/3 143/168/3 144/169/3 134/158/3
f 134/158/109 144/169/109 145/170/109 135/159/109
f 135/160/110 145/171/110 146/172/110 136/161/110
f 136/161/111 146/172/111 147/173/111 137/162/111
f 137/162/112 147/173/112 148/174/112 138/163/112
f 138/163/8 148/174/8 149/175/8 139/164/8
f 139/164/113 149/175/113 150/176/113 140/165/113
f 140/165/114 150/176/114 141/166/114 131/155/114
f 141/166/115 151/177/115 152/178/115 142/167/115
f 142/167/116 152/178/116 153/179/116 143/168/116
f 143/168/3 153/179/3 154/180/3 144/169/3
f 144/169/117 154/180/117 155/181/117 145/170/117
f 145/171/118 155/182/118 156/183/118 146/172/118
f 146/172/119 156/183/119 157/184/119 147/173/119
f 147/173/120 157/184/120 158/185/120 148/174/120
f 148/174/8 158/185/8 159/186/8 149/175/8
f 149/175/121 159/186/121 160/187/121 150/176/121
f 150/176/122 160/187/122 151/177/122 141/166/122
f 151/177/123 161/188/123 162/189/123 152/178/123
f 152/178/124 162/189/124 163/190/124 153/179/124
f 153/179/3 163/190/3 164/191/3 154/180/3
f 154/180/125 164/191/125 165/192/125 155/181/125
f 155/182/126 165/193/126 166/194/126 156/183/126
f 156/183/127 166/194/127 167/195/127 157/184/127
f 157/184/128 167/195/128 168/196/128 158/185/128
f 158/185/8 168/196/8 169/197/8 159/186/8
f 159/186/129 169/197/129 170/198/129 160/187/129
f 160/187/130 170/198/130 161/188/130 151/177/130
f 161/188/131 171/199/131 172/200/131 162/189/131
f 162/189/132 172/200/132 173/201/132 163/190/132
f 163/190/3 173/201/3 174/202/3 164/191/3
f 164/191/133 174/202/133 175/203/133 165/192/133
f 165/193/134 175/204/134 176/205/134 166/194/134
f 166/194/135 176/205/135 177/206/135 167/195/135
f 167/195/136 177/206/136 178/207/136 168/196/136
f 168/196/8 178/207/8 179/208/8 169/197/8
f 169/197/137 179/208/137 180/209/137 170/198/137
f 170/198/138 180/209/138 171/199/138 161/188/138
f 171/199/139 181/210/139 182/211/139 172/200/139
f 172/200/140 182/211/140 183/212/140 173/201/140
f 173/201/3 183/212/3 184/213/3 174/202/3
f 174/202/141 184/213/141 185/214/141 175/203/141
f 175/204/142 185/215/142 186/216/142 176/205/142
f 176/205/143 186/216/143 187/217/143 177/206/143
f 177/206/144 187/217/144 188/218/144 178/207/144
f 178/207/8 188/218/8 189/219/8 179/208/8
f 179/208/145 189/219/145 190/220/145 180/209/145
f 180/209/146 190/220/146 181/210/146 171/199/146
f 181/210/147 191/221/147 192/222/147 182/211/147
f 182/211/148 192/222/148 193/223/148 183/212/148
f 183/212/3 193/223/3 194/224/3 184/213/3
f 184/213/149 194/224/149 195/225/149 185/214/149
f 185/215/150 195/226/150 196/227/150 186/216/150
f 186/216/151 196/227/151 197/228/151 187/217/151
f 187/217/152 197/228/152 198/229/152 188/218/152
f 188/218/8 198/229/8 199/230/8 189/219/8
f 189/219/153 199/230/153 200/231/153 190/220/153
f 190/220/154 200/231/154 191/221/154 181/210/154
f 191/221/155 201/232/155 202/233/155 192/222/155
f 192/222/156 202/233/156 203/234/156 193/223/156
f 193/223/3 203/234/3 204/235/3 194/224/3
f 194/224/157 204/235/157 205/236/157 195/225/157
f 195/226/158 205/237/158 206/238/158 196/227/158
f 196/227/159 206/238/159 207/239/159 197/228/159
f 197/228/160 207/239/160 208/240/160 198/229/160
f 198/229/8 208/240/8 209/241/8 199/230/8
f 199/230/161 209/241/161 210/242/161 200/231/161
f 200/231/162 210/242/162 201/232/162 191/221/162
f 201/232/163 1/1/163 2/4/163 202/233/163
f 202/233/164 2/4/164 3/6/164 203/234/164
f 203/234/3 3/6/3 4/8/3 204/235/3
f 204/235/165 4/8/165 5/10/165 205/236/165
f 205/237/166 5/11/166 6/14/166 206/238/166
f 206/238/167 6/14/167 7/16/167 207/239/167
f 207/239/168 7/16/168 8/18/168 208/240/168
f 208/240/8 8/18/8 9/20/8 209/241/8
f 209/241/169 9/20/169 10/22/169 210/242/169
f 210/242/170 10/22/170 1/1/170 201/232/170
