# Blender v2.82 (sub 7) OBJ File: ''
# www.blender.org
mtllib cone.mtl
o Cone
v 0.000000 0.000000 -2.500000
v 0.313333 0.000000 -2.480287
v 0.621725 0.000000 -2.421458
v 0.920311 0.000000 -2.324441
v 1.204384 0.000000 -2.190767
v 1.469463 0.000000 -2.022542
v 1.711368 0.000000 -1.822422
v 1.926283 0.000000 -1.593560
v 2.110820 0.000000 -1.339567
v 2.262068 0.000000 -1.064448
v 2.377641 0.000000 -0.772542
v 2.455718 0.000000 -0.468453
v 2.495067 0.000000 -0.156976
v 2.495067 0.000000 0.156977
v 2.455718 0.000000 0.468454
v 2.377641 0.000000 0.772543
v 2.262067 0.000000 1.064449
v 2.110819 0.000000 1.339568
v 1.926282 0.000000 1.593561
v 1.711367 0.000000 1.822423
v 1.469462 0.000000 2.022543
v 1.204383 0.000000 2.190767
v 0.920310 0.000000 2.324442
v 0.621723 0.000000 2.421458
v 0.313331 0.000000 2.480287
v -0.000002 0.000000 2.500000
v -0.313335 0.000000 2.480287
v -0.621727 0.000000 2.421457
v -0.920314 0.000000 2.324440
v -1.204386 0.000000 2.190765
v -1.469465 0.000000 2.022541
v -1.711370 0.000000 1.822420
v 0.000000 5.000000 0.000000
v -1.926285 0.000000 1.593558
v -2.110821 0.000000 1.339564
v -2.262069 0.000000 1.064445
v -2.377642 0.000000 0.772539
v -2.455719 0.000000 0.468450
v -2.495067 0.000000 0.156973
v -2.495067 0.000000 -0.156980
v -2.455718 0.000000 -0.468457
v -2.377640 0.000000 -0.772546
v -2.262066 0.000000 -1.064452
v -2.110818 0.000000 -1.339571
v -1.926280 0.000000 -1.593563
v -1.711365 0.000000 -1.822425
v -1.469459 0.000000 -2.022545
v -1.204380 0.000000 -2.190769
v -0.920307 0.000000 -2.324443
v -0.621720 0.000000 -2.421459
v -0.313328 0.000000 -2.480287
vt 0.250000 0.490000
vt 0.250000 0.250000
vt 0.280080 0.488108
vt 0.309686 0.482460
vt 0.338350 0.473146
vt 0.365621 0.460314
vt 0.391068 0.444164
vt 0.414291 0.424952
vt 0.434923 0.402982
vt 0.452639 0.378598
vt 0.467158 0.352187
vt 0.478254 0.324164
vt 0.485749 0.294971
vt 0.489526 0.265070
vt 0.489526 0.234930
vt 0.485749 0.205028
vt 0.478254 0.175836
vt 0.467158 0.147813
vt 0.452639 0.121401
vt 0.434923 0.097018
vt 0.414291 0.075047
vt 0.391068 0.055836
vt 0.365621 0.039686
vt 0.338350 0.026854
vt 0.309685 0.017540
vt 0.280080 0.011892
vt 0.250000 0.010000
vt 0.219920 0.011892
vt 0.190314 0.017540
vt 0.161650 0.026854
vt 0.134379 0.039687
vt 0.108931 0.055836
vt 0.085708 0.075048
vt 0.065077 0.097018
vt 0.047361 0.121402
vt 0.032841 0.147813
vt 0.021746 0.175836
vt 0.014251 0.205029
vt 0.010474 0.234931
vt 0.010474 0.265070
vt 0.014251 0.294972
vt 0.021747 0.324164
vt 0.032842 0.352187
vt 0.047362 0.378599
vt 0.065077 0.402982
vt 0.085709 0.424953
vt 0.108932 0.444164
vt 0.134380 0.460314
vt 0.161651 0.473147
vt 0.190315 0.482460
vt 0.219921 0.488108
vt 0.750000 0.490000
vt 0.780080 0.488108
vt 0.809686 0.482460
vt 0.838350 0.473146
vt 0.865621 0.460314
vt 0.891068 0.444164
vt 0.914291 0.424952
vt 0.934923 0.402982
vt 0.952639 0.378598
vt 0.967158 0.352187
vt 0.978254 0.324164
vt 0.985749 0.294971
vt 0.989526 0.265070
vt 0.989526 0.234930
vt 0.985749 0.205028
vt 0.978254 0.175836
vt 0.967158 0.147813
vt 0.952639 0.121401
vt 0.934923 0.097018
vt 0.914291 0.075047
vt 0.891068 0.055836
vt 0.865621 0.039686
vt 0.838350 0.026854
vt 0.809685 0.017540
vt 0.780080 0.011892
vt 0.750000 0.010000
vt 0.719920 0.011892
vt 0.690314 0.017540
vt 0.661650 0.026854
vt 0.634379 0.039687
vt 0.608931 0.055836
vt 0.585708 0.075048
vt 0.565077 0.097018
vt 0.547361 0.121402
vt 0.532841 0.147813
vt 0.521746 0.175836
vt 0.514251 0.205029
vt 0.510474 0.234931
vt 0.510474 0.265070
vt 0.514251 0.294972
vt 0.521747 0.324164
vt 0.532842 0.352187
vt 0.547361 0.378599
vt 0.565077 0.402982
vt 0.585709 0.424953
vt 0.608932 0.444164
vt 0.634380 0.460314
vt 0.661651 0.473147
vt 0.690315 0.482460
vt 0.719921 0.488108
vn 0.0562 0.4465 -0.8930
vn 0.1677 0.4465 -0.8789
vn 0.2765 0.4465 -0.8510
vn 0.3810 0.4465 -0.8096
vn 0.4794 0.4465 -0.7555
vn 0.5704 0.4465 -0.6894
vn 0.6523 0.4465 -0.6125
vn 0.7239 0.4465 -0.5259
vn 0.7841 0.4465 -0.4311
vn 0.8319 0.4465 -0.3294
vn 0.8667 0.4465 -0.2225
vn 0.8877 0.4465 -0.1121
vn 0.8948 0.4465 0.0000
vn 0.8877 0.4465 0.1121
vn 0.8667 0.4465 0.2225
vn 0.8319 0.4465 0.3294
vn 0.7841 0.4465 0.4311
vn 0.7239 0.4465 0.5259
vn 0.6523 0.4465 0.6125
vn 0.5704 0.4465 0.6894
vn 0.4794 0.4465 0.7555
vn 0.3810 0.4465 0.8096
vn 0.2765 0.4465 0.8510
vn 0.1677 0.4465 0.8789
vn 0.0562 0.4465 0.8930
vn -0.0562 0.4465 0.8930
vn -0.1677 0.4465 0.8789
vn -0.2765 0.4465 0.8510
vn -0.3810 0.4465 0.8096
vn -0.4794 0.4465 0.7555
vn -0.5704 0.4465 0.6894
vn -0.6523 0.4465 0.6125
vn -0.7239 0.4465 0.5259
vn -0.7841 0.4465 0.4311
vn -0.8319 0.4465 0.3294
vn -0.8667 0.4465 0.2225
vn -0.8877 0.4465 0.1121
vn -0.8948 0.4465 -0.0000
vn -0.8877 0.4465 -0.1121
vn -0.8667 0.4465 -0.2225
vn -0.8319 0.4465 -0.3294
vn -0.7841 0.4465 -0.4311
vn -0.7239 0.4465 -0.5259
vn -0.6523 0.4465 -0.6125
vn -0.5704 0.4465 -0.6894
vn -0.4794 0.4465 -0.7555
vn -0.3810 0.4465 -0.8096
vn -0.2765 0.4465 -0.8510
vn -0.1677 0.4465 -0.8789
vn -0.0562 0.4465 -0.8930
vn 0.0000 -1.0000 0.0000
usemtl None
s off
f 1/1/1 33/2/1 2/3/1
f 2/3/2 33/2/2 3/4/2
f 3/4/3 33/2/3 4/5/3
f 4/5/4 33/2/4 5/6/4
f 5/6/5 33/2/5 6/7/5
f 6/7/6 33/2/6 7/8/6
f 7/8/7 33/2/7 8/9/7
f 8/9/8 33/2/8 9/10/8
f 9/10/9 33/2/9 10/11/9
f 10/11/10 33/2/10 11/12/10
f 11/12/11 33/2/11 12/13/11
f 12/13/12 33/2/12 13/14/12
f 13/14/13 33/2/13 14/15/13
f 14/15/14 33/2/14 15/16/14
f 15/16/15 33/2/15 16/17/15
f 16/17/16 33/2/16 17/18/16
f 17/18/17 33/2/17 18/19/17
f 18/19/18 33/2/18 19/20/18
f 19/20/19 33/2/19 20/21/19
f 20/21/20 33/2/20 21/22/20
f 21/22/21 33/2/21 22/23/21
f 22/23/22 33/2/22 23/24/22
f 23/24/23 33/2/23 24/25/23
f 24/25/24 33/2/24 25/26/24
f 25/26/25 33/2/25 26/27/25
f 26/27/26 33/2/26 27/28/26
f 27/28/27 33/2/27 28/29/27
f 28/29/28 33/2/28 29/30/28
f 29/30/29 33/2/29 30/31/29
f 30/31/30 33/2/30 31/32/30
f 31/32/31 33/2/31 32/33/31
f 32/33/32 33/2/32 34/34/32
f 34/34/33 33/2/33 35/35/33
f 35/35/34 33/2/34 36/36/34
f 36/36/35 33/2/35 37/37/35
f 37/37/36 33/2/36 38/38/36
f 38/38/37 33/2/37 39/39/37
f 39/39/38 33/2/38 40/40/38
f 40/40/39 33/2/39 41/41/39
f 41/41/40 33/2/40 42/42/40
f 42/42/41 33/2/41 43/43/41
f 43/43/42 33/2/42 44/44/42
f 44/44/43 33/2/43 45/45/43
f 45/45/44 33/2/44 46/46/44
f 46/46/45 33/2/45 47/47/45
f 47/47/46 33/2/46 48/48/46
f 48/48/47 33/2/47 49/49/47
f 49/49/48 33/2/48 50/50/48
f 50/50/49 33/2/49 51/51/49
f 51/51/50 33/2/50 1/1/50
f 1/52/51 2/53/51 3/54/51 4/55/51 5/56/51 6/57/51 7/58/51 8/59/51 9/60/51 10/61/51 11/62/51 12/63/51 13/64/51 14/65/51 15/66/51 16/67/51 17/68/51 18/69/51 19/70/51 20/71/51 21/72/51 22/73/51 23/74/51 24/75/51 25/76/51 26/77/51 27/78/51 28/79/51 29/80/51 30/81/51 31/82/51 32/83/51 34/84/51 35/85/51 36/86/51 37/87/51 38/88/51 39/89/51 40/90/51 41/91/51 42/92/51 43/93/51 44/94/51 45/95/51 46/96/51 47/97/51 48/98/51 49/99/51 50/100/51 51/101/51
