# Blender v2.82 (sub 7) OBJ File: 'triangle.blend'
# www.blender.org
mtllib triangle.mtl
o Cone
v -0.000000 0.000039 -2.095264
v -0.554329 0.943897 -2.181008
v 0.554329 0.943897 -2.181008
v 1.533041 0.000039 0.560033
v 2.062318 0.943896 0.430898
v 1.502375 0.950045 1.380561
v -1.533042 0.000039 0.560033
v -1.502375 0.950044 1.380561
v -2.062318 0.943896 0.430898
v 0.000000 3.370762 0.297792
v 0.304706 3.373659 -0.223558
v -0.304706 3.373659 -0.223558
v 0.361457 0.587642 -2.865468
v 2.545042 0.587642 0.916601
v 0.000000 4.105966 -0.031059
v 0.000000 4.105966 -0.031059
v 2.183585 0.587642 1.542661
v -2.183585 0.587642 1.542661
v -0.361457 0.587642 -2.865467
v 0.000000 4.105966 -0.031059
v -2.545042 0.587641 0.916601
vt 0.750000 0.410680
vt 0.715448 0.430154
vt 0.784552 0.430154
vt 0.889153 0.169660
vt 0.923294 0.189846
vt 0.888742 0.130000
vt 0.610847 0.169660
vt 0.611258 0.130000
vt 0.576706 0.189846
vt 0.227034 0.263260
vt 0.227034 0.263260
vt 0.227034 0.263260
vt 0.272966 0.423465
vt 0.411708 0.183157
vt 0.423500 0.189490
vt 0.284347 0.430510
vt 0.272966 0.263260
vt 0.388742 0.143378
vt 0.272966 0.263260
vt 0.111258 0.143378
vt 0.110847 0.130000
vt 0.389153 0.130000
vt 0.227034 0.423465
vt 0.250000 0.223481
vt 0.088292 0.183157
vt 0.250000 0.223481
vt 0.215653 0.430510
vt 0.076500 0.189490
vt 0.287547 0.381989
vt 0.383362 0.216032
vt 0.287547 0.271351
vt 0.250000 0.206742
vt 0.345459 0.151629
vt 0.154541 0.151629
vt 0.212453 0.381989
vt 0.212453 0.271351
vt 0.116638 0.216032
vn -0.0000 -0.7950 -0.6066
vn 0.4215 -0.8736 0.2433
vn -0.4215 -0.8736 0.2433
vn 0.0000 0.0000 1.0000
vn 0.5577 -0.7651 -0.3220
vn 0.6891 0.6057 0.3979
vn -0.0000 -0.8583 0.5132
vn -0.0000 0.6274 -0.7787
vn -0.6891 0.6057 0.3979
vn -0.5577 -0.7651 -0.3220
vn 0.0000 -1.0000 -0.0000
vn 0.7771 0.4413 -0.4487
vn -0.0000 0.4083 0.9128
vn -0.7771 0.4413 -0.4487
usemtl None
s off
f 1/1/1 19/2/1 13/3/1
f 4/4/2 14/5/2 17/6/2
f 7/7/3 18/8/3 21/9/3
f 16/10/4 15/11/4 20/12/4
f 13/13/5 14/14/5 4/15/5 1/16/5
f 16/17/6 17/18/6 14/14/6 15/19/6
f 17/18/7 18/20/7 7/21/7 4/22/7
f 19/23/8 20/12/8 15/11/8 13/13/8
f 20/24/9 21/25/9 18/20/9 16/26/9
f 21/25/10 19/23/10 1/27/10 7/28/10
f 1/1/11 4/4/11 7/7/11
f 3/29/12 5/30/12 14/14/12 13/13/12
f 5/30/12 11/31/12 15/19/12 14/14/12
f 11/31/12 3/29/12 13/13/12 15/19/12
f 10/32/13 6/33/13 17/18/13 16/26/13
f 6/33/13 8/34/13 18/20/13 17/18/13
f 8/34/13 10/32/13 16/26/13 18/20/13
f 2/35/14 12/36/14 20/12/14 19/23/14
f 12/36/14 9/37/14 21/25/14 20/12/14
f 9/37/14 2/35/14 19/23/14 21/25/14
